<?xml version="1.0" encoding="UTF-8" standalone="no"?><svg xmlns="http://www.w3.org/2000/svg" xmlns:xlink="http://www.w3.org/1999/xlink" fill="none" height="451" preserveAspectRatio="xMidYMid meet" style="fill: none" version="1" viewBox="0.0 0.0 399.7 451.0" width="399.7" zoomAndPan="magnify"><g id="change1_1"><path clip-rule="evenodd" d="M209.016 0C93.5798 0 0 93.5798 0 209.016V265.984C0 368.16 82.8307 450.991 185.008 450.991H212.9C299.672 450.991 370.015 380.648 370.015 293.875V286.191C370.015 242.548 336.633 206.702 294.009 202.793V190.812C294.009 139.735 252.603 98.3295 201.526 98.3295H196.5C164.55 98.3295 135.343 116.38 121.055 144.957C114.694 157.679 119.851 173.149 132.573 179.51C145.295 185.872 160.766 180.715 167.127 167.993C172.69 156.867 184.061 149.839 196.5 149.839H201.526C224.155 149.839 242.499 168.183 242.499 190.812V199.828L193.472 200.361C151.844 200.813 118.336 234.687 118.336 276.318C118.336 318.27 152.345 352.279 194.297 352.279H206.173C254.683 352.279 294.009 312.953 294.009 264.443V254.886C308.075 258.354 318.506 271.055 318.506 286.191V293.875C318.506 352.2 271.224 399.482 212.9 399.482H185.008C111.279 399.482 51.5096 339.713 51.5096 265.984V209.016C51.5096 122.028 122.028 51.5096 209.016 51.5096H274.081C315.014 51.5096 348.197 84.6923 348.197 125.625C348.197 139.849 359.728 151.38 373.952 151.38C388.176 151.38 399.707 139.849 399.707 125.625C399.707 56.2443 343.462 0 274.081 0H209.016ZM194.032 251.867L242.499 251.341V264.443C242.499 284.505 226.235 300.77 206.173 300.77H194.297C180.793 300.77 169.846 289.822 169.846 276.318C169.846 262.917 180.632 252.013 194.032 251.867Z" fill="#2a194b" fill-rule="evenodd"/></g></svg>